<svg width="30" height="28" viewBox="0 0 30 28" fill="none" xmlns="http://www.w3.org/2000/svg">
<path d="M17.5901 1.53931L20.002 6.32231C20.2067 6.72499 20.509 7.07325 20.8828 7.33706C21.2567 7.60086 21.6909 7.77231 22.1481 7.83662L27.5606 8.59377C28.087 8.66809 28.5815 8.88424 28.9881 9.21774C29.3946 9.55123 29.6971 9.98876 29.8611 10.4808C30.0252 10.9728 30.0443 11.4996 29.9163 12.0017C29.7883 12.5037 29.5183 12.9608 29.1369 13.3214L25.2247 17.0148C24.8834 17.3336 24.6299 17.7306 24.4872 18.1694C24.3446 18.6081 24.3173 19.0747 24.4081 19.5263L25.3196 24.771C25.4073 25.2787 25.3478 25.8001 25.1478 26.2767C24.9477 26.7533 24.6151 27.1663 24.1871 27.4693C23.7591 27.7723 23.2528 27.9534 22.7249 27.9921C22.197 28.0309 21.6684 27.9259 21.1985 27.6888L16.3557 25.1773C15.9454 24.9686 15.4893 24.8596 15.0263 24.8596C14.5633 24.8596 14.1072 24.9686 13.6969 25.1773L8.85408 27.6519C8.38416 27.8889 7.8556 27.994 7.3277 27.9552C6.79981 27.9164 6.29347 27.7354 5.8655 27.4324C5.43753 27.1293 5.10486 26.7164 4.90481 26.2398C4.70476 25.7631 4.64524 25.2418 4.73295 24.7341L5.64454 19.5263C5.72535 19.0832 5.69316 18.6276 5.55079 18.1994C5.40841 17.7712 5.1602 17.3834 4.8279 17.0702L0.915673 13.3768C0.517127 13.0188 0.232014 12.5575 0.0938741 12.0473C-0.0442658 11.5371 -0.0296875 10.9991 0.135895 10.4967C0.301477 9.99424 0.611176 9.54824 1.02856 9.21114C1.44594 8.87403 1.95365 8.65984 2.49196 8.59377L7.90451 7.83662C8.36168 7.77231 8.7959 7.60086 9.16976 7.33706C9.54362 7.07325 9.8459 6.72499 10.0505 6.32231L12.4625 1.53931C12.7008 1.07669 13.0669 0.687685 13.5197 0.415833C13.9725 0.143981 14.4942 0 15.0263 0C15.5584 0 16.0801 0.143981 16.5329 0.415833C16.9857 0.687685 17.3517 1.07669 17.5901 1.53931Z" fill="#F6BD00"/>
</svg>
