<svg width="26" height="23" viewBox="0 0 26 23" fill="none" xmlns="http://www.w3.org/2000/svg">
<path d="M25.574 8.26819L14.343 0.438021C13.9523 0.152957 13.4865 0 13.0091 0C12.5317 0 12.0659 0.152957 11.6752 0.438021L0.444192 8.26819C0.223092 8.42256 0.0700701 8.66187 0.0187901 8.93347C-0.0324898 9.20507 0.0221724 9.4867 0.170752 9.71643C0.319331 9.94615 0.549657 10.1051 0.811059 10.1584C1.07246 10.2117 1.34353 10.1549 1.56463 10.0005L3.00519 9.0027V18.8424C3.00519 19.9451 3.42678 21.0026 4.17722 21.7823C4.92766 22.562 5.94548 23 7.00676 23H19.0114C20.0727 23 21.0905 22.562 21.841 21.7823C22.5914 21.0026 23.013 19.9451 23.013 18.8424V9.0027L24.4536 10.0005C24.6248 10.0985 24.8184 10.1464 25.0138 10.1391C25.1775 10.1413 25.3392 10.1005 25.4837 10.0206C25.6283 9.94064 25.7511 9.82411 25.8408 9.68178C25.9807 9.45599 26.031 9.1827 25.9813 8.91918C25.9316 8.65567 25.7856 8.42238 25.574 8.26819ZM15.6768 19.8402H10.3414C10.0761 19.8402 9.82162 19.7307 9.63401 19.5358C9.4464 19.3409 9.341 19.0765 9.341 18.8008C9.341 18.5251 9.4464 18.2608 9.63401 18.0658C9.82162 17.8709 10.0761 17.7614 10.3414 17.7614H15.6768C15.9421 17.7614 16.1966 17.8709 16.3842 18.0658C16.5718 18.2608 16.6772 18.5251 16.6772 18.8008C16.6772 19.0765 16.5718 19.3409 16.3842 19.5358C16.1966 19.7307 15.9421 19.8402 15.6768 19.8402Z" fill="white"/>
</svg>
