<svg width="24" height="24" viewBox="0 0 24 24" fill="none" xmlns="http://www.w3.org/2000/svg">
<path d="M23.6599 21.971L19.5858 17.9138C21.3537 15.7197 22.2128 12.9316 21.9863 10.1233C21.7598 7.31508 20.4649 4.70055 18.3683 2.81806C16.2716 0.935566 13.5328 -0.0715906 10.7157 0.00396307C7.89861 0.0795167 5.21773 1.23203 3.22504 3.2242C1.23235 5.21637 0.0795375 7.89655 0.0039641 10.7129C-0.0716093 13.5292 0.93581 16.2673 2.8188 18.3635C4.70178 20.4596 7.317 21.7541 10.126 21.9806C12.9349 22.207 15.7239 21.3481 17.9185 19.5807L21.9768 23.6537C22.2007 23.8755 22.5031 24 22.8183 24C23.1336 24 23.436 23.8755 23.6599 23.6537C23.8781 23.4279 24 23.1263 24 22.8124C24 22.4985 23.8781 22.1968 23.6599 21.971ZM16.141 10.9629C16.1368 9.60873 15.5969 8.31116 14.639 7.35358C13.6812 6.396 12.3833 5.85619 11.0287 5.85205C10.7171 5.84797 10.4194 5.7224 10.199 5.50209C9.97866 5.28178 9.85306 4.98415 9.84899 4.67261C9.84687 4.51714 9.87594 4.36282 9.93448 4.21877C9.99302 4.07471 10.0798 3.94385 10.1898 3.83391C10.2998 3.72396 10.4307 3.63716 10.5748 3.57864C10.7189 3.52012 10.8732 3.49106 11.0287 3.49317C13.0091 3.49733 14.9071 4.28565 16.3075 5.68561C17.7078 7.08556 18.4963 8.98312 18.5005 10.9629C18.5005 11.2758 18.3762 11.5757 18.1549 11.7969C17.9337 12.0181 17.6336 12.1424 17.3207 12.1424C17.0078 12.1424 16.7078 12.0181 16.4865 11.7969C16.2653 11.5757 16.141 11.2758 16.141 10.9629Z" fill="white"/>
</svg>
