<svg width="28" height="28" viewBox="0 0 28 28" fill="none" xmlns="http://www.w3.org/2000/svg">
<path d="M14 0C11.2311 0 8.52431 0.821086 6.22202 2.35943C3.91973 3.89776 2.12532 6.08426 1.06569 8.64243C0.00606591 11.2006 -0.271181 14.0155 0.269012 16.7313C0.809205 19.447 2.14258 21.9416 4.10051 23.8995C6.05844 25.8574 8.55301 27.1908 11.2687 27.731C13.9845 28.2712 16.7994 27.9939 19.3576 26.9343C21.9157 25.8747 24.1022 24.0803 25.6406 21.778C27.1789 19.4757 28 16.7689 28 14C28 10.287 26.525 6.72601 23.8995 4.1005C21.274 1.475 17.713 0 14 0ZM15.1667 14C15.1679 14.1813 15.1263 14.3604 15.0452 14.5226C14.9641 14.6848 14.8458 14.8255 14.7 14.9333L8.47778 19.6C8.27532 19.7505 8.03003 19.8322 7.77778 19.8333C7.59645 19.8346 7.41739 19.7929 7.2552 19.7118C7.09301 19.6307 6.95227 19.5125 6.84445 19.3667C6.68232 19.125 6.61637 18.8314 6.65954 18.5436C6.70271 18.2558 6.85189 17.9946 7.07778 17.8111L12.8333 13.4867V4.66667C12.8333 4.35725 12.9563 4.0605 13.175 3.84171C13.3938 3.62292 13.6906 3.5 14 3.5C14.3094 3.5 14.6062 3.62292 14.825 3.84171C15.0438 4.0605 15.1667 4.35725 15.1667 4.66667V14Z" fill="#F6BD00"/>
</svg>
