<svg width="27" height="27" viewBox="0 0 27 27" fill="none" xmlns="http://www.w3.org/2000/svg">
<g clip-path="url(#clip0_44_639)">
<path d="M13.44 26.88C20.8627 26.88 26.88 20.8627 26.88 13.44C26.88 6.01729 20.8627 0 13.44 0C6.01729 0 0 6.01729 0 13.44C0 20.8627 6.01729 26.88 13.44 26.88Z" fill="#F0F0F0"/>
<path d="M13.4402 -0.000366211C7.66148 -0.000366211 2.73514 3.64691 0.836168 8.76487H26.0443C24.1453 3.64691 19.2189 -0.000366211 13.4402 -0.000366211Z" fill="#D80027"/>
<path d="M13.4402 26.8803C19.2189 26.8803 24.1453 23.2331 26.0442 18.1151H0.836168C2.73514 23.2331 7.66148 26.8803 13.4402 26.8803Z" fill="black"/>
<path d="M18.1147 11.9791H14.6086C14.6086 11.3337 14.0854 10.8104 13.4399 10.8104C12.7945 10.8104 12.2712 11.3337 12.2712 11.9791H8.76512C8.76512 12.6246 9.32734 13.1478 9.97277 13.1478H9.93382C9.93382 13.7933 10.457 14.3165 11.1025 14.3165C11.1025 14.962 11.6257 15.4852 12.2712 15.4852H14.6086C15.2541 15.4852 15.7773 14.962 15.7773 14.3165C16.4228 14.3165 16.946 13.7933 16.946 13.1478H16.9071C17.5526 13.1478 18.1147 12.6246 18.1147 11.9791Z" fill="#FF9811"/>
</g>
<defs>
<clipPath id="clip0_44_639">
<rect width="26.88" height="26.88" fill="white"/>
</clipPath>
</defs>
</svg>
