<svg width="23" height="23" viewBox="0 0 23 23" fill="none" xmlns="http://www.w3.org/2000/svg">
<path d="M12.795 9.62378C13.1094 9.93708 13.3238 10.3366 13.4109 10.7718C13.4981 11.207 13.4541 11.6583 13.2846 12.0685C13.1151 12.4787 12.8277 12.8294 12.4588 13.0761C12.0898 13.3229 11.656 13.4546 11.2122 13.4546C10.7683 13.4546 10.3345 13.3229 9.96552 13.0761C9.59659 12.8294 9.30918 12.4787 9.13968 12.0685C8.97018 11.6583 8.92623 11.207 9.01338 10.7718C9.10054 10.3366 9.31488 9.93708 9.62926 9.62378C10.0496 9.20492 10.6188 8.96973 11.2122 8.96973C11.8055 8.96973 12.3747 9.20492 12.795 9.62378Z" fill="white"/>
<path d="M17.4411 0H4.98316C3.66155 0 2.39406 0.52501 1.45953 1.45953C0.52501 2.39406 0 3.66155 0 4.98316V17.4411C0 18.7627 0.52501 20.0302 1.45953 20.9647C2.39406 21.8992 3.66155 22.4242 4.98316 22.4242H17.4411C18.7627 22.4242 20.0302 21.8992 20.9647 20.9647C21.8992 20.0302 22.4242 18.7627 22.4242 17.4411V4.98316C22.4242 3.66155 21.8992 2.39406 20.9647 1.45953C20.0302 0.52501 18.7627 0 17.4411 0ZM17.1047 7.47475L15.535 14.0899C15.4558 14.4295 15.2831 14.7401 15.0366 14.9867C14.79 15.2333 14.4793 15.406 14.1397 15.4852L7.47475 17.1047C7.17858 17.1672 6.87149 17.1548 6.58133 17.0686C6.29117 16.9824 6.0271 16.8252 5.81306 16.6112C5.59903 16.3971 5.44179 16.1331 5.35561 15.8429C5.26943 15.5527 5.25703 15.2457 5.31953 14.9495L6.88923 8.28451C6.9718 7.94783 7.14581 7.64052 7.39203 7.3965C7.63825 7.15248 7.94711 6.98124 8.28451 6.90168L14.9495 5.33199C15.2444 5.27021 15.5501 5.28269 15.839 5.36828C16.1279 5.45387 16.3911 5.60991 16.6047 5.82237C16.8184 6.03482 16.976 6.29704 17.0633 6.58546C17.1505 6.87388 17.1648 7.17946 17.1047 7.47475Z" fill="white"/>
</svg>
