<svg width="42" height="42" viewBox="0 0 42 42" fill="none" xmlns="http://www.w3.org/2000/svg">
<path d="M7 28.875V13.125C7 12.1967 7.36875 11.3065 8.02513 10.6501C8.6815 9.99375 9.57174 9.625 10.5 9.625H17.7975C18.2593 9.62464 18.7167 9.71568 19.1432 9.89289C19.5697 10.0701 19.9569 10.33 20.2825 10.6575L23.4675 13.8425C23.7931 14.17 24.1803 14.4299 24.6068 14.6071C25.0333 14.7843 25.4907 14.8754 25.9525 14.875H31.5C32.4283 14.875 33.3185 15.2438 33.9749 15.9001C34.6313 16.5565 35 17.4467 35 18.375V28.875C35 29.8033 34.6313 30.6935 33.9749 31.3499C33.3185 32.0063 32.4283 32.375 31.5 32.375H10.5C9.57174 32.375 8.6815 32.0063 8.02513 31.3499C7.36875 30.6935 7 29.8033 7 28.875Z" fill="#F6BD00"/>
</svg>
