<svg width="28" height="25" viewBox="0 0 28 25" fill="none" xmlns="http://www.w3.org/2000/svg">
<path d="M21.3696 0.00995273C20.4249 -0.0404384 19.4798 0.100895 18.5914 0.42541C17.7031 0.749926 16.8898 1.25089 16.2008 1.89801C15.5119 2.54514 14.9615 3.32499 14.583 4.19045C14.2045 5.0559 14.0057 5.98898 13.9986 6.9333C13.9916 5.98898 13.7928 5.0559 13.4143 4.19045C13.0358 3.32499 12.4854 2.54514 11.7964 1.89801C11.1075 1.25089 10.2942 0.749926 9.40584 0.42541C8.51745 0.100895 7.57238 -0.0404384 6.62773 0.00995273C4.77893 0.179049 3.06433 1.04561 1.83343 2.433C0.602526 3.82038 -0.0520131 5.62415 0.00323296 7.47661C0.00323296 19.5071 9.87777 23.7294 13.0345 24.8471C13.661 25.051 14.3362 25.051 14.9628 24.8471C18.0729 23.807 27.9474 19.5847 27.994 7.55422C28.0696 5.68862 27.4242 3.86535 26.1913 2.46126C24.9584 1.05718 23.2322 0.179616 21.3696 0.00995273Z" fill="#F6BD00"/>
</svg>
