<svg width="25" height="31" viewBox="0 0 25 31" fill="none" xmlns="http://www.w3.org/2000/svg">
<path d="M20.3125 9.17999C19.4496 9.17999 18.75 8.48044 18.75 7.61749V6.23429C18.75 4.58085 18.0915 2.99514 16.9194 1.82598C15.7473 0.656825 14.1576 0 12.5 0C10.8424 0 9.25268 0.656825 8.08058 1.82598C6.90848 2.99514 6.25 4.58085 6.25 6.23429V7.61749C6.25 8.48044 5.55045 9.17999 4.6875 9.17999C3.4443 9.17999 2.25201 9.67261 1.37294 10.5495C0.49386 11.4263 0 12.6156 0 13.8557V26.3243C0 27.5644 0.49386 28.7536 1.37294 29.6305C2.25201 30.5074 3.4443 31 4.6875 31H20.3125C21.5557 31 22.748 30.5074 23.6271 29.6305C24.5061 28.7536 25 27.5644 25 26.3243V13.8557C25 12.6156 24.5061 11.4263 23.6271 10.5495C22.748 9.67261 21.5557 9.17999 20.3125 9.17999ZM9.375 6.23429C9.35398 5.38533 9.67101 4.56264 10.2567 3.9463C10.8424 3.32996 11.649 2.97018 12.5 2.9457C13.351 2.97018 14.1576 3.32996 14.7433 3.9463C15.329 4.56264 15.646 5.38533 15.625 6.23429C15.625 7.86116 14.3062 9.17999 12.6793 9.17999H12.3207C10.6938 9.17999 9.375 7.86116 9.375 6.23429ZM12.5 24.7657C11.5729 24.7657 10.6666 24.4915 9.89576 23.9777C9.12491 23.4639 8.5241 22.7337 8.16931 21.8793C7.81453 21.0249 7.7217 20.0848 7.90257 19.1778C8.08344 18.2708 8.52988 17.4377 9.18544 16.7838C9.84099 16.1299 10.6762 15.6845 11.5855 15.5041C12.4948 15.3237 13.4373 15.4163 14.2938 15.7702C15.1504 16.1241 15.8824 16.7234 16.3975 17.4923C16.9126 18.2612 17.1875 19.1652 17.1875 20.09C17.1875 21.3301 16.6936 22.5194 15.8146 23.3962C14.9355 24.2731 13.7432 24.7657 12.5 24.7657Z" fill="white"/>
</svg>
