<svg width="30" height="30" viewBox="0 0 30 30" fill="none" xmlns="http://www.w3.org/2000/svg">
<path d="M15 12.2625C17.0711 12.2625 18.75 10.5835 18.75 8.51245C18.75 6.44138 17.0711 4.76245 15 4.76245C12.9289 4.76245 11.25 6.44138 11.25 8.51245C11.25 10.5835 12.9289 12.2625 15 12.2625Z" fill="white"/>
<path d="M6.01254 25.2375C5.96164 25.2359 5.91156 25.2243 5.86517 25.2033C5.81877 25.1823 5.77696 25.1524 5.74213 25.1152C5.70731 25.0781 5.68014 25.0344 5.66219 24.9868C5.64425 24.9391 5.63587 24.8884 5.63754 24.8375C5.63754 22.3511 6.62526 19.9666 8.38341 18.2084C10.1416 16.4502 12.5261 15.4625 15.0125 15.4625C17.4989 15.4625 19.8835 16.4502 21.6417 18.2084C23.3998 19.9666 24.3875 22.3511 24.3875 24.8375C24.3892 24.8884 24.3808 24.9391 24.3629 24.9868C24.3449 25.0344 24.3178 25.0781 24.2829 25.1152C24.2481 25.1524 24.2063 25.1823 24.1599 25.2033C24.1135 25.2243 24.0634 25.2359 24.0125 25.2375H6.01254Z" fill="white"/>
</svg>
