<svg width="25" height="25" viewBox="0 0 25 25" fill="none" xmlns="http://www.w3.org/2000/svg">
<path d="M4.10379 0.500188L1.88765 2.75327C1.28962 3.34669 0.81486 4.05318 0.490847 4.83185C0.166834 5.61052 0 6.44591 0 7.28969C0 8.13346 0.166834 8.96885 0.490847 9.74752C0.81486 10.5262 1.28962 11.2327 1.88765 11.8261L13.1493 23.1066C13.7409 23.7065 14.4452 24.1827 15.2216 24.5077C15.9979 24.8327 16.8308 25 17.672 25C18.5132 25 19.3461 24.8327 20.1224 24.5077C20.8987 24.1827 21.6031 23.7065 22.1947 23.1066L24.5013 20.8838C24.6588 20.7353 24.7842 20.5561 24.87 20.3572C24.9558 20.1582 25 19.9438 25 19.727C25 19.5103 24.9558 19.2958 24.87 19.0969C24.7842 18.8979 24.6588 18.7187 24.5013 18.5702L21.1243 15.1679C20.8227 14.8706 20.4166 14.7039 19.9937 14.7039C19.5707 14.7039 19.1646 14.8706 18.863 15.1679L17.7323 16.302C17.4306 16.5994 17.0246 16.766 16.6016 16.766C16.1786 16.766 15.7726 16.5994 15.4709 16.302L8.62652 9.49741C8.33005 9.19482 8.16392 8.78755 8.16392 8.3633C8.16392 7.93906 8.33005 7.53178 8.62652 7.2292L9.75721 6.0951C10.0537 5.79251 10.2198 5.38524 10.2198 4.96099C10.2198 4.53675 10.0537 4.12947 9.75721 3.82689L6.41038 0.500188C6.26236 0.342272 6.08368 0.216425 5.88533 0.130402C5.68698 0.0443785 5.47318 0 5.25708 0C5.04099 0 4.82718 0.0443785 4.62884 0.130402C4.43049 0.216425 4.2518 0.342272 4.10379 0.500188Z" fill="white"/>
</svg>
