<svg width="23" height="23" viewBox="0 0 23 23" fill="none" xmlns="http://www.w3.org/2000/svg">
<path d="M11.2121 0C8.99458 0 6.82683 0.657579 4.983 1.88958C3.13918 3.12159 1.7021 4.87268 0.853477 6.92143C0.00485799 8.97017 -0.217179 11.2246 0.215443 13.3995C0.648065 15.5744 1.71592 17.5722 3.28396 19.1403C4.852 20.7083 6.84981 21.7762 9.02475 22.2088C11.1997 22.6414 13.4541 22.4194 15.5028 21.5708C17.5516 20.7221 19.3027 19.2851 20.5347 17.4412C21.7667 15.5974 22.4242 13.4297 22.4242 11.2121C22.4212 8.23941 21.2389 5.38934 19.1369 3.28732C17.0349 1.1853 14.1848 0.00304425 11.2121 0ZM18.1119 17.7324C17.3099 16.6592 16.2687 15.7878 15.0709 15.1876C13.8732 14.5874 12.5519 14.2748 11.2121 14.2748C9.87237 14.2748 8.55109 14.5874 7.35332 15.1876C6.15554 15.7878 5.1143 16.6592 4.31236 17.7324C3.04055 16.3848 2.19123 14.6942 1.86926 12.8693C1.54729 11.0445 1.76675 9.16536 2.50057 7.46385C3.23438 5.76233 4.45042 4.31296 5.99854 3.29466C7.54667 2.27636 9.35912 1.73371 11.2121 1.73371C13.0651 1.73371 14.8776 2.27636 16.4257 3.29466C17.9738 4.31296 19.1899 5.76233 19.9237 7.46385C20.6575 9.16536 20.877 11.0445 20.555 12.8693C20.233 14.6942 19.3837 16.3848 18.1119 17.7324Z" fill="white"/>
<path d="M11.2121 4.48488C10.5912 4.48488 9.98426 4.669 9.46799 5.01396C8.95172 5.35892 8.54934 5.84923 8.31173 6.42288C8.07411 6.99652 8.01194 7.62775 8.13308 8.23673C8.25421 8.84571 8.55321 9.4051 8.99226 9.84415C9.43131 10.2832 9.99069 10.5822 10.5997 10.7033C11.2087 10.8245 11.8399 10.7623 12.4135 10.5247C12.9872 10.2871 13.4775 9.88468 13.8224 9.36841C14.1674 8.85215 14.3515 8.24518 14.3515 7.62427C14.353 7.21158 14.2728 6.80269 14.1156 6.42113C13.9583 6.03958 13.7271 5.69291 13.4353 5.4011C13.1435 5.10928 12.7968 4.87809 12.4153 4.72085C12.0337 4.5636 11.6248 4.48341 11.2121 4.48488Z" fill="white"/>
</svg>
