<svg width="20" height="29" viewBox="0 0 20 29" fill="none" xmlns="http://www.w3.org/2000/svg">
<path d="M1.95523e-05 27.3023V5.0685C1.95523e-05 3.72425 0.526803 2.43506 1.46448 1.48453C2.40216 0.534001 3.67393 0 5.00001 0H15C16.3261 0 17.5978 0.534001 18.5355 1.48453C19.4732 2.43506 20 3.72425 20 5.0685V27.3023C20.0014 27.608 19.9211 27.9084 19.7674 28.1714C19.6137 28.4344 19.3926 28.6503 19.1274 28.7959C18.8623 28.9416 18.5632 29.0116 18.2619 28.9984C17.9606 28.9853 17.6685 28.8896 17.4167 28.7215L10 23.653L2.58335 28.7215C2.3315 28.8896 2.03938 28.9853 1.7381 28.9984C1.43682 29.0116 1.13768 28.9416 0.872555 28.7959C0.60743 28.6503 0.386254 28.4344 0.232597 28.1714C0.07894 27.9084 -0.0014409 27.608 1.95523e-05 27.3023Z" fill="white"/>
</svg>
