<svg width="31" height="31" viewBox="0 0 31 31" fill="none" xmlns="http://www.w3.org/2000/svg">
<path d="M15.1319 17.0233C16.1765 17.0233 17.0234 16.1765 17.0234 15.1318C17.0234 14.0872 16.1765 13.2404 15.1319 13.2404C14.0872 13.2404 13.2404 14.0872 13.2404 15.1318C13.2404 16.1765 14.0872 17.0233 15.1319 17.0233Z" fill="white"/>
<path d="M19.2805 22.849L17.6539 21.1593L17.5656 21.071L15.9641 19.4696C15.71 19.5141 15.4529 19.5394 15.1949 19.5452C14.6101 19.5536 14.0294 19.4456 13.4866 19.2276C12.9438 19.0095 12.4498 18.6857 12.0333 18.2751C11.6168 17.8644 11.286 17.375 11.0603 16.8354C10.8346 16.2958 10.7184 15.7167 10.7184 15.1318C10.7243 14.8738 10.7496 14.6167 10.7941 14.3626L8.27209 11.8406L6.30495 9.92389C4.8817 11.2649 3.66243 12.8071 2.68591 14.5013C2.57523 14.693 2.51697 14.9104 2.51697 15.1318C2.51697 15.3531 2.57523 15.5706 2.68591 15.7623C3.48033 17.1367 7.72987 23.9587 15.1571 23.9587H15.4723C16.8689 23.9173 18.2475 23.6313 19.5453 23.1138L19.2805 22.849Z" fill="white"/>
<path d="M10.8319 7.26317L14.3627 10.7939C14.6168 10.7494 14.8739 10.7241 15.1319 10.7183C16.3024 10.7183 17.425 11.1833 18.2527 12.011C19.0804 12.8386 19.5453 13.9612 19.5453 15.1317C19.5395 15.3897 19.5142 15.6468 19.4697 15.9009L22.8491 19.2804L23.9084 20.3396C25.3495 19.0021 26.5859 17.4598 27.5778 15.7622C27.6885 15.5705 27.7468 15.3531 27.7468 15.1317C27.7468 14.9104 27.6885 14.6929 27.5778 14.5012C26.7708 13.1016 22.3321 6.07784 14.7914 6.30482C13.3948 6.34625 12.0163 6.6322 10.7184 7.14968L10.8319 7.26317Z" fill="white"/>
<path d="M26.1151 24.3243L24.4758 22.6976L21.9538 20.1757L9.94923 8.15844L8.09558 6.30479L5.93928 4.1485C5.82171 4.03092 5.68213 3.93766 5.52852 3.87403C5.3749 3.8104 5.21025 3.77765 5.04398 3.77765C4.87771 3.77765 4.71306 3.8104 4.55945 3.87403C4.40583 3.93766 4.26625 4.03092 4.14868 4.1485C3.91123 4.38594 3.77783 4.70799 3.77783 5.0438C3.77783 5.3796 3.91123 5.70165 4.14868 5.9391L6.9733 8.82677L9.18003 10.9704L18.3979 20.1757L18.4861 20.2639L20.1759 21.9537L20.9198 22.6976L24.3245 26.1149C24.4417 26.2331 24.5812 26.3269 24.7349 26.391C24.8885 26.455 25.0533 26.4879 25.2198 26.4879C25.3863 26.4879 25.5511 26.455 25.7048 26.391C25.8584 26.3269 25.9979 26.2331 26.1151 26.1149C26.2333 25.9977 26.3271 25.8582 26.3911 25.7046C26.4552 25.5509 26.4881 25.3861 26.4881 25.2196C26.4881 25.0532 26.4552 24.8883 26.3911 24.7347C26.3271 24.581 26.2333 24.4416 26.1151 24.3243Z" fill="white"/>
</svg>
