<svg width="38" height="37" viewBox="0 0 38 37" fill="none" xmlns="http://www.w3.org/2000/svg">
<path d="M32.835 6.89553V29.8809H4.69069V6.89553H32.835ZM32.835 4.59698H4.69069C4.06867 4.59698 3.47212 4.83915 3.03228 5.27021C2.59244 5.70127 2.34534 6.28591 2.34534 6.89553V29.8809C2.34534 30.4905 2.59244 31.0752 3.03228 31.5062C3.47212 31.9373 4.06867 32.1795 4.69069 32.1795H32.835C33.457 32.1795 34.0536 31.9373 34.4934 31.5062C34.9332 31.0752 35.1803 30.4905 35.1803 29.8809V6.89553C35.1803 6.28591 34.9332 5.70127 34.4934 5.27021C34.0536 4.83915 33.457 4.59698 32.835 4.59698Z" fill="white"/>
<path d="M7.03607 11.4927H15.2448V13.7912H7.03607V11.4927Z" fill="white"/>
<path d="M7.03607 16.0898H11.7268V18.3883H7.03607V16.0898Z" fill="white"/>
<path d="M26.9716 20.6869H19.9355C19.0025 20.6869 18.1076 21.0501 17.4479 21.6967C16.7881 22.3433 16.4175 23.2203 16.4175 24.1347V26.4332H18.7628V24.1347C18.7628 23.8299 18.8864 23.5376 19.1063 23.322C19.3262 23.1065 19.6245 22.9854 19.9355 22.9854H26.9716C27.2826 22.9854 27.5809 23.1065 27.8008 23.322C28.0207 23.5376 28.1443 23.8299 28.1443 24.1347V26.4332H30.4896V24.1347C30.4896 23.2203 30.119 22.3433 29.4592 21.6967C28.7995 21.0501 27.9046 20.6869 26.9716 20.6869Z" fill="white"/>
<path d="M23.4536 19.5376C24.3813 19.5376 25.2882 19.268 26.0596 18.7629C26.831 18.2577 27.4322 17.5398 27.7872 16.6998C28.1423 15.8597 28.2352 14.9354 28.0542 14.0437C27.8732 13.1519 27.4264 12.3328 26.7704 11.6899C26.1144 11.047 25.2786 10.6092 24.3687 10.4318C23.4588 10.2544 22.5157 10.3454 21.6585 10.6934C20.8014 11.0413 20.0688 11.6305 19.5534 12.3865C19.038 13.1425 18.7629 14.0313 18.7629 14.9405C18.7629 16.1597 19.2571 17.329 20.1368 18.1912C21.0164 19.0533 22.2095 19.5376 23.4536 19.5376ZM23.4536 12.642C23.9175 12.642 24.3709 12.7768 24.7566 13.0294C25.1423 13.2819 25.4429 13.6409 25.6204 14.0609C25.7979 14.4809 25.8444 14.9431 25.7539 15.389C25.6634 15.8348 25.44 16.2444 25.112 16.5658C24.784 16.8873 24.3661 17.1062 23.9111 17.1949C23.4562 17.2836 22.9846 17.2381 22.5561 17.0641C22.1275 16.8901 21.7612 16.5955 21.5035 16.2175C21.2458 15.8395 21.1082 15.3951 21.1082 14.9405C21.1082 14.3309 21.3553 13.7463 21.7952 13.3152C22.235 12.8842 22.8316 12.642 23.4536 12.642Z" fill="white"/>
</svg>
